<svg width="96" height="28" viewBox="0 0 96 28" fill="none" xmlns="http://www.w3.org/2000/svg">
<path d="M4.26869 3.72452L13.2152 22.4365L21.5187 3.72452H23.4116L12.6616 27.793H11.6258L0.0722656 3.72452H4.26869ZM28.8294 9.77269L31.383 8.74395H32.4366V27.2431H28.8294V9.77269ZM28.5437 2.12823C28.5437 1.84445 28.5973 1.5784 28.7044 1.33009C28.8116 1.08178 28.9604 0.863034 29.1509 0.673841C29.3413 0.484652 29.5615 0.336848 29.8116 0.23043C30.0616 0.12401 30.3295 0.0708008 30.6152 0.0708008C30.9009 0.0708008 31.1687 0.12401 31.4187 0.23043C31.6687 0.336848 31.8889 0.484652 32.0794 0.673841C32.2699 0.863034 32.4187 1.08178 32.5259 1.33009C32.633 1.5784 32.6866 1.84445 32.6866 2.12823C32.6866 2.41202 32.633 2.67806 32.5259 2.92638C32.4187 3.17468 32.2699 3.39343 32.0794 3.58263C31.8889 3.77182 31.6687 3.91962 31.4187 4.02604C31.1687 4.13246 30.9009 4.18567 30.6152 4.18567C30.3295 4.18567 30.0616 4.13246 29.8116 4.02604C29.5615 3.91962 29.3413 3.77182 29.1509 3.58263C28.9604 3.39343 28.8116 3.17468 28.7044 2.92638C28.5973 2.67806 28.5437 2.41202 28.5437 2.12823ZM41.7473 9.08093L48.2116 22.8267L54.408 9.08093H56.0508L47.8187 27.4382H46.5687L37.9437 9.08093H41.7473ZM63.9687 8.74395H64.5223L65.0044 12.4508C65.2901 11.907 65.6472 11.4103 66.0758 10.961C66.5044 10.5117 66.9746 10.1215 67.4866 9.79039C68.0104 9.45931 68.558 9.20512 69.1294 9.02773C69.7128 8.83855 70.302 8.74395 70.8973 8.74395C71.433 8.74395 71.9568 8.81486 72.4687 8.95675C72.9925 9.09864 73.4806 9.32332 73.933 9.63079L72.7901 12.6637C72.552 12.4036 72.302 12.1967 72.0402 12.043C71.7782 11.8774 71.5103 11.7532 71.2366 11.6705C70.9628 11.5759 70.683 11.5168 70.3973 11.4931C70.1115 11.4694 69.8258 11.4576 69.5401 11.4576C69.0878 11.4576 68.6413 11.5227 68.2008 11.6527C67.7723 11.7828 67.3615 11.9779 66.9687 12.238C66.5759 12.4863 66.2127 12.8115 65.8794 13.2135C65.5461 13.6038 65.2544 14.0649 65.0044 14.597V27.2431H61.3794V9.73719L63.9687 8.74395ZM86.7612 27.6333C85.5231 27.6333 84.3567 27.4027 83.2618 26.9416C82.1784 26.4804 81.2321 25.8538 80.4222 25.0615C79.613 24.2693 78.97 23.3411 78.4938 22.2769C78.029 21.2008 77.7974 20.0598 77.7974 18.8538C77.7974 17.3994 78.0115 16.0573 78.4405 14.8276C78.8687 13.586 79.4759 12.5159 80.2614 11.6173C81.0469 10.7186 81.9879 10.0151 83.0827 9.50661C84.1898 8.99815 85.4226 8.74395 86.7795 8.74395C87.9696 8.74395 89.0652 8.95675 90.0648 9.38243C91.0652 9.7963 91.9224 10.358 92.6363 11.0674C93.3624 11.7651 93.9224 12.575 94.3148 13.4973C94.7201 14.4196 94.922 15.3833 94.922 16.3883H81.2976C81.2976 17.6063 81.4523 18.7355 81.7616 19.776C82.0831 20.8166 82.5296 21.7152 83.101 22.472C83.6725 23.2287 84.3506 23.82 85.1368 24.2457C85.9224 24.6713 86.7856 24.8841 87.7258 24.8841C88.5113 24.8841 89.2671 24.76 89.994 24.5117C90.7201 24.2516 91.3746 23.9146 91.9582 23.5007C92.5532 23.0868 93.0591 22.6139 93.4759 22.0818C93.8927 21.5497 94.1845 20.9999 94.3506 20.4323L95.4043 20.8935C95.1422 21.8276 94.7201 22.7026 94.1365 23.5184C93.5528 24.3343 92.8687 25.0497 92.0831 25.6646C91.309 26.2676 90.4641 26.7465 89.5475 27.1012C88.6309 27.4559 87.7022 27.6333 86.7612 27.6333ZM90.3689 14.934C90.3689 14.2481 90.2439 13.6097 89.994 13.0184C89.7555 12.4272 89.4226 11.9188 88.9936 11.4931C88.5654 11.0556 88.0648 10.7127 87.4934 10.4644C86.922 10.2161 86.3094 10.0919 85.6542 10.0919C85.1071 10.0919 84.5829 10.2161 84.0831 10.4644C83.5833 10.7008 83.1368 11.0378 82.7437 11.4754C82.3506 11.9011 82.0237 12.4095 81.7616 13.0007C81.5117 13.5919 81.3624 14.2304 81.3151 14.9162L90.3689 14.934Z" fill="#343A40"/>
</svg>
