<svg width="68" height="20" viewBox="0 0 68 20" fill="none" xmlns="http://www.w3.org/2000/svg">
<path d="M3.02325 2.66058L9.36033 16.0263L15.242 2.66058H16.5828L8.9682 19.8523H8.23455L0.0507812 2.66058H3.02325ZM20.4204 6.9807L22.2292 6.24589H22.9755V19.4596H20.4204V6.9807ZM20.218 1.52038C20.218 1.31767 20.256 1.12764 20.3319 0.950273C20.4078 0.772911 20.5132 0.616662 20.6481 0.481524C20.783 0.346389 20.939 0.240815 21.1161 0.164802C21.2932 0.0887877 21.483 0.0507812 21.6853 0.0507812C21.8877 0.0507812 22.0774 0.0887877 22.2545 0.164802C22.4316 0.240815 22.5876 0.346389 22.7225 0.481524C22.8574 0.616662 22.9628 0.772911 23.0387 0.950273C23.1146 1.12764 23.1526 1.31767 23.1526 1.52038C23.1526 1.72308 23.1146 1.91311 23.0387 2.09048C22.9628 2.26784 22.8574 2.42409 22.7225 2.55923C22.5876 2.69436 22.4316 2.79994 22.2545 2.87595C22.0774 2.95196 21.8877 2.98997 21.6853 2.98997C21.483 2.98997 21.2932 2.95196 21.1161 2.87595C20.939 2.79994 20.783 2.69436 20.6481 2.55923C20.5132 2.42409 20.4078 2.26784 20.3319 2.09048C20.256 1.91311 20.218 1.72308 20.218 1.52038ZM29.5706 6.48659L34.1495 16.305L38.5386 6.48659H39.7023L33.8711 19.5989H32.9857L26.8764 6.48659H29.5706ZM45.3107 6.24589H45.7029L46.0444 8.89367C46.2468 8.50519 46.4997 8.15043 46.8033 7.82951C47.1069 7.50854 47.44 7.22983 47.8026 6.99335C48.1736 6.75686 48.5615 6.57529 48.9662 6.44859C49.3795 6.31346 49.7969 6.24589 50.2185 6.24589C50.598 6.24589 50.969 6.29654 51.3316 6.39789C51.7026 6.49924 52.0484 6.65973 52.3688 6.87935L51.5592 9.04573C51.3906 8.85989 51.2135 8.7121 51.028 8.60232C50.8425 8.48405 50.6527 8.39535 50.4588 8.33627C50.2649 8.2687 50.0667 8.22648 49.8643 8.20956C49.6619 8.19265 49.4596 8.18421 49.2572 8.18421C48.9368 8.18421 48.6205 8.2307 48.3085 8.32356C48.0049 8.41648 47.714 8.55583 47.4357 8.74167C47.1575 8.91902 46.9003 9.15129 46.6642 9.43843C46.4281 9.71719 46.2215 10.0465 46.0444 10.4266V19.4596H43.4767V6.95535L45.3107 6.24589ZM61.4555 19.7383C60.5785 19.7383 59.7522 19.5736 58.9767 19.2442C58.2093 18.9148 57.539 18.4672 56.9653 17.9013C56.3922 17.3354 55.9367 16.6724 55.5994 15.9123C55.2702 15.1437 55.1061 14.3286 55.1061 13.4672C55.1061 12.4283 55.2577 11.4697 55.5616 10.5913C55.8649 9.70448 56.295 8.94016 56.8514 8.29827C57.4078 7.65637 58.0743 7.15383 58.8499 6.79065C59.634 6.42746 60.5072 6.24589 61.4684 6.24589C62.3114 6.24589 63.0875 6.39789 63.7955 6.70194C64.5041 6.99756 65.1113 7.39875 65.617 7.90551C66.1313 8.40383 66.5279 8.98237 66.8059 9.64113C67.093 10.2999 67.236 10.9883 67.236 11.7062H57.5854C57.5854 12.5761 57.695 13.3827 57.9141 14.1259C58.1418 14.8692 58.4581 15.5111 58.8628 16.0516C59.2676 16.5922 59.7479 17.0145 60.3049 17.3185C60.8613 17.6226 61.4727 17.7746 62.1387 17.7746C62.6951 17.7746 63.2305 17.6859 63.7453 17.5085C64.2597 17.3228 64.7232 17.082 65.1366 16.7864C65.5581 16.4908 65.9165 16.153 66.2117 15.7729C66.5069 15.3929 66.7136 15.0001 66.8312 14.5947L67.5776 14.9241C67.392 15.5913 67.093 16.2163 66.6796 16.7991C66.2662 17.3818 65.7816 17.8929 65.2251 18.332C64.6768 18.7628 64.0783 19.1049 63.4291 19.3582C62.7798 19.6116 62.122 19.7383 61.4555 19.7383ZM64.0109 10.6673C64.0109 10.1775 63.9223 9.7214 63.7453 9.29908C63.5764 8.87681 63.3406 8.51362 63.0367 8.20956C62.7334 7.89708 62.3789 7.6521 61.9741 7.47475C61.5693 7.2974 61.1354 7.2087 60.6713 7.2087C60.2838 7.2087 59.9125 7.2974 59.5585 7.47475C59.2044 7.64367 58.8882 7.88437 58.6097 8.19691C58.3312 8.50097 58.0997 8.8641 57.9141 9.28643C57.737 9.7087 57.6313 10.1648 57.5978 10.6546L64.0109 10.6673Z" fill="#343A40"/>
</svg>
